<?xml version="1.0" encoding="utf-8"?>
<!-- Generator: Adobe Illustrator 23.1.1, SVG Export Plug-In . SVG Version: 6.00 Build 0)  -->
<svg version="1.1" id="Layer_1" xmlns="http://www.w3.org/2000/svg" xmlns:xlink="http://www.w3.org/1999/xlink" x="0px" y="0px"
	 viewBox="0 0 467.72 54.43" style="enable-background:new 0 0 467.72 54.43;" xml:space="preserve">
<style type="text/css">
	.st0{fill:#010202;}
</style>
<g>
	<polygon class="st0" points="33.04,14.19 21.79,14.19 21.79,43.36 18.37,43.36 18.37,14.19 7.12,14.19 7.12,11.06 33.04,11.06 	"/>
	<polygon class="st0" points="65.98,43.36 62.55,43.36 62.55,28.59 43.4,28.59 43.4,43.36 39.97,43.36 39.97,11.06 43.4,11.06 
		43.4,25.46 62.55,25.46 62.55,11.06 65.98,11.06 	"/>
	<polygon class="st0" points="92.52,14.19 78.58,14.19 78.58,25.51 92.11,25.51 92.11,28.63 78.58,28.63 78.58,40.24 92.88,40.24 
		92.88,43.36 75.15,43.36 75.15,11.06 92.52,11.06 	"/>
	<path class="st0" d="M133.86,40.57c-4.57,2.51-8.27,3.22-12.25,3.22c-12.11,0-18.15-8.19-18.15-16.48
		c0-8.15,6.17-16.67,18.83-16.67c5.67,0,9.6,1.85,11.2,2.84v7.43c-1.28-0.99-5.26-3.51-10.65-3.51c-6.49,0-11.29,3.88-11.29,9.8
		c0,6.35,5.21,9.9,11.06,9.9c2.93,0,5.67-0.85,8.27-2.23l2.97-1.75V40.57z"/>
	<path class="st0" d="M159.46,17.5c-5.58,0-9.78,3.5-9.78,9.9c0,7.72,6.12,9.85,9.83,9.85c4.98,0,9.83-3.41,9.83-9.8
		C169.33,21.43,165.54,17.5,159.46,17.5 M159.37,43.79c-10.79,0-17.78-8.1-17.78-16.53c0-7.53,6.03-16.62,17.92-16.62
		c11.01,0,17.87,8.19,17.87,16.62C177.38,34.74,171.48,43.79,159.37,43.79"/>
	<polygon class="st0" points="217.33,43.36 210.84,43.36 193.61,23.38 193.61,43.36 185.88,43.36 185.88,11.06 192.97,11.06 
		209.65,30.1 209.65,11.06 217.33,11.06 	"/>
	<path class="st0" d="M233.99,16.94v7.39h3.25c2.01-0.1,2.51-0.1,3.34-0.57c1.14-0.62,1.69-1.8,1.69-3.13
		c0-3.69-3.47-3.69-4.34-3.69H233.99z M238.1,11.06c2.83,0,5.67,0,8.18,1.61c1.65,1.14,4.07,3.79,4.07,7.62
		c0,5.4-4.02,7.29-5.35,7.96c2.24,1.14,3.79,4.4,4.48,6.06c0.87,1.85,2.19,4.88,3.02,6.72l1.05,2.32h-8.55
		c-0.69-1.42-3.38-7.81-4.02-9.09c-2.1-4.07-3.66-4.07-5.85-4.07h-1.14v13.16h-7.86v-32.3H238.1z"/>
	<path class="st0" d="M275.23,18.83l-4.57,12.5h9.6L275.23,18.83z M293.47,43.36h-8.37l-2.56-6.39H268.6l-2.33,6.39h-8.23
		l12.57-32.3h9L293.47,43.36z"/>
	<polygon class="st0" points="331.16,43.36 324.67,43.36 307.44,23.38 307.44,43.36 299.72,43.36 299.72,11.06 306.8,11.06 
		323.49,30.1 323.49,11.06 331.16,11.06 	"/>
	<path class="st0" d="M358.41,16.79c-1.42-1.09-3.93-2.94-7.09-2.94c-4.94,0-5.8,3.79-5.8,4.97c0,3.27,3.15,4.93,5.9,6.35
		c6.08,3.13,8.27,4.97,8.27,9.76c0,6.11-5.03,8.86-9.1,8.86c-2.93,0-5.76-1.18-8.18-2.94v-4.36c1.65,1.7,4.62,4.07,8.09,4.07
		c4.39,0,5.8-3.46,5.8-5.4c0-2.04-0.59-3.98-6.99-7.1c-5.26-2.56-7.18-5.26-7.18-8.86c0-5.07,4.02-8.57,9.23-8.57
		c3.47,0,5.8,1.37,7.04,2.13V16.79z"/>
	<polygon class="st0" points="393.55,43.36 390.12,43.36 390.12,28.59 370.97,28.59 370.97,43.36 367.54,43.36 367.54,11.06 
		370.97,11.06 370.97,25.46 390.12,25.46 390.12,11.06 393.55,11.06 	"/>
	<path class="st0" d="M430.08,27.12c0-6.39-4.75-13.12-13.03-13.12c-8,0-12.98,6.3-12.98,13.26c0,7.86,6.08,13.17,12.75,13.17
		C424.28,40.43,430.08,34.88,430.08,27.12 M400.42,27.21c0-8.52,6.17-16.57,16.64-16.57c10.15,0,16.68,7.77,16.68,16.57
		c0,9.66-7.5,16.58-16.87,16.58C407.73,43.79,400.42,36.73,400.42,27.21"/>
	<path class="st0" d="M444.83,14.19v11.46h5.12c6.26,0,6.99-3.41,6.99-5.73c0-2.32-0.73-5.73-6.99-5.73H444.83z M450.31,11.06
		c7.82,0,10.28,4.45,10.28,8.86c0,4.4-2.47,8.86-10.28,8.86h-5.48v14.59h-3.43v-32.3H450.31z"/>
</g>
</svg>
